<?xml version="1.0" encoding="utf-8"?>
<!-- Generator: Adobe Illustrator 19.0.0, SVG Export Plug-In . SVG Version: 6.00 Build 0)  -->
<svg version="1.1" id="Capa_1" xmlns="http://www.w3.org/2000/svg" xmlns:xlink="http://www.w3.org/1999/xlink" x="0px" y="0px"
	 viewBox="-171 262.2 268.8 268.8" style="enable-background:new -171 262.2 268.8 268.8;" xml:space="preserve">
<g id="Settings">
	<g>
		<path d="M2639.6-1035.3c-4.5-39.6-50.7-69.4-90.6-69.4c-129.2,0-243.8-75.9-291.9-193.2c-49.1-120.2-17.4-260.3,78.8-348.6
			c30.3-27.7,34-74.1,8.6-106.3c-66.1-84-141.3-159.8-223.3-225.5c-32.1-25.8-79.3-22.2-107.1,8.7c-84,93.1-235,127.6-351.6,79
			c-121.4-51.1-197.9-174-190.4-306.1c2.5-41.5-27.8-77.5-69.2-82.3c-105.3-12.2-211.5-12.6-317.1-0.8
			c-40.9,4.5-71.2,39.7-69.8,80.7c4.6,130.7-72.9,251.6-193,300.8c-115.2,47.1-265.1,12.8-349-79.5c-27.7-30.4-74.1-34.1-106.4-8.9
			c-84.5,66.3-161.3,142.2-228.1,225.5c-26,32.4-22.2,79.3,8.4,107.1c98.1,88.9,129.8,230.2,78.8,351.7
			c-48.7,115.9-169,190.6-306.7,190.6c-44.7-1.4-76.5,28.6-81.4,69.2c-12.4,105.9-12.5,213.8-0.6,320.6c4.4,39.8,52,69.3,92.4,69.3
			C53-656,170.9-580,220.3-459.6c49.3,120.2,17.6,260.2-78.8,348.6c-30.2,27.7-34,74-8.6,106.2c65.5,83.4,140.7,159.3,223,225.6
			c32.3,26,79.3,22.4,107.3-8.5c84.3-93.3,235.3-127.8,351.4-79.1c121.7,50.9,198.2,173.9,190.7,306c-2.4,41.5,28,77.6,69.2,82.3
			c53.9,6.3,108.1,9.4,162.4,9.4c51.6,0,103.2-2.8,154.8-8.6c40.9-4.5,71.2-39.7,69.8-80.7c-4.7-130.6,72.9-251.5,192.9-300.6
			c116-47.4,265.3-12.7,349.1,79.4c27.9,30.3,73.9,34,106.4,8.9c84.3-66.1,161-142,228.1-225.5c26-32.3,22.3-79.3-8.4-107.1
			c-98.1-88.9-130-230.2-79-351.7C2298.5-569.2,2414.4-646,2539-646l17.4,0.5c40.4,3.3,77.6-27.9,82.5-69.1
			C2651.4-820.7,2651.5-928.5,2639.6-1035.3z M1240.9-405.5c-259.3,0-470.2-210.9-470.2-470.2c0-259.3,210.9-470.2,470.2-470.2
			c259.3,0,470.2,210.9,470.2,470.2C1711.1-616.4,1500.2-405.5,1240.9-405.5z"/>
	</g>
</g>
</svg>
