<?xml version="1.0" encoding="utf-8"?>
<!-- Generator: Adobe Illustrator 19.0.0, SVG Export Plug-In . SVG Version: 6.00 Build 0)  -->
<svg version="1.1" id="Capa_1" xmlns="http://www.w3.org/2000/svg" xmlns:xlink="http://www.w3.org/1999/xlink" x="0px" y="0px"
	 viewBox="-61 153.4 487.6 487.6" style="enable-background:new -61 153.4 487.6 487.6;" xml:space="preserve">
<g>
	<path d="M1823.8-3128.6C782.8-3128.6-61-2284.7-61-1243.7C-61-202.8,782.8,641,1823.8,641c1040.9,0,1884.8-843.8,1884.8-1884.7
		C3708.6-2284.7,2864.7-3128.6,1823.8-3128.6z M1823.3-2327.5c157.8,0,285.8,128,285.8,285.8c0,157.9-128,285.8-285.8,285.8
		c-157.9,0-285.9-128-285.9-285.8C1537.4-2199.5,1665.4-2327.5,1823.3-2327.5z M2314.3-181.6c0,28.6-23.2,51.7-51.7,51.7h-166.3
		h-546.2H1384c-28.5,0-51.7-23.2-51.7-51.7v-106c0-28.6,23.1-51.7,51.7-51.7h166.1v-1005.8h-171.2c-28.5,0-51.7-23.2-51.7-51.7
		v-106.2c0-28.6,23.2-51.7,51.7-51.7h171.2h494.6h1.7c28.5,0,51.7,23.2,51.7,51.7v1163.7h164.6c28.5,0,51.7,23.2,51.7,51.7
		L2314.3-181.6L2314.3-181.6z"/>
</g>
</svg>
